<svg xmlns="http://www.w3.org/2000/svg" width="760" height="240" style="background:#0d0d1a;border-radius:8px">
<style>text{font-family:ui-monospace,monospace,sans-serif}</style>
<text x="20" y="16" font-size="11" fill="#777">対数スケール（実装）— 各ビン = 1オクターブ幅</text><rect x="20" y="28" width="35" height="70" fill="hsl(0,85%,58%)" rx="2"/><text x="37.5" y="111" text-anchor="middle" font-size="9" fill="#666">20Hz</text><rect x="56" y="28" width="35" height="70" fill="hsl(13,85%,58%)" rx="2"/><rect x="92" y="28" width="35" height="70" fill="hsl(27,85%,58%)" rx="2"/><rect x="128" y="28" width="35" height="70" fill="hsl(40,85%,58%)" rx="2"/><rect x="164" y="28" width="35" height="70" fill="hsl(54,85%,58%)" rx="2"/><rect x="200" y="28" width="35" height="70" fill="hsl(67,85%,58%)" rx="2"/><rect x="236" y="28" width="35" height="70" fill="hsl(81,85%,58%)" rx="2"/><rect x="272" y="28" width="35" height="70" fill="hsl(94,85%,58%)" rx="2"/><rect x="308" y="28" width="35" height="70" fill="hsl(108,85%,58%)" rx="2"/><rect x="344" y="28" width="35" height="70" fill="hsl(121,85%,58%)" rx="2"/><text x="361.5" y="111" text-anchor="middle" font-size="9" fill="#666">500Hz</text><rect x="380" y="28" width="35" height="70" fill="hsl(135,85%,58%)" rx="2"/><rect x="416" y="28" width="35" height="70" fill="hsl(148,85%,58%)" rx="2"/><rect x="452" y="28" width="35" height="70" fill="hsl(162,85%,58%)" rx="2"/><rect x="488" y="28" width="35" height="70" fill="hsl(175,85%,58%)" rx="2"/><rect x="524" y="28" width="35" height="70" fill="hsl(189,85%,58%)" rx="2"/><text x="541.5" y="111" text-anchor="middle" font-size="9" fill="#666">3kHz</text><rect x="560" y="28" width="35" height="70" fill="hsl(202,85%,58%)" rx="2"/><rect x="596" y="28" width="35" height="70" fill="hsl(216,85%,58%)" rx="2"/><rect x="632" y="28" width="35" height="70" fill="hsl(229,85%,58%)" rx="2"/><rect x="668" y="28" width="35" height="70" fill="hsl(243,85%,58%)" rx="2"/><rect x="704" y="28" width="35" height="70" fill="hsl(256,85%,58%)" rx="2"/><text x="721.5" y="111" text-anchor="middle" font-size="9" fill="#666">20kHz</text><text x="20" y="148" font-size="11" fill="#777">線形スケール（比較）— 低域ビンが画面上でほぼ消える</text><rect x="20" y="158" width="1" height="45" fill="hsl(0,85%,58%)" rx="1"/><rect x="21" y="158" width="1" height="45" fill="hsl(13,85%,58%)" rx="1"/><rect x="22" y="158" width="1" height="45" fill="hsl(27,85%,58%)" rx="1"/><rect x="23" y="158" width="1" height="45" fill="hsl(40,85%,58%)" rx="1"/><rect x="24" y="158" width="1" height="45" fill="hsl(54,85%,58%)" rx="1"/><rect x="25" y="158" width="2" height="45" fill="hsl(67,85%,58%)" rx="1"/><rect x="27" y="158" width="2" height="45" fill="hsl(81,85%,58%)" rx="1"/><rect x="29" y="158" width="3" height="45" fill="hsl(94,85%,58%)" rx="1"/><rect x="32" y="158" width="5" height="45" fill="hsl(108,85%,58%)" rx="1"/><rect x="37" y="158" width="7" height="45" fill="hsl(121,85%,58%)" rx="1"/><rect x="44" y="158" width="9" height="45" fill="hsl(135,85%,58%)" rx="1"/><rect x="53" y="158" width="13" height="45" fill="hsl(148,85%,58%)" rx="1"/><rect x="66" y="158" width="19" height="45" fill="hsl(162,85%,58%)" rx="1"/><rect x="85" y="158" width="26" height="45" fill="hsl(175,85%,58%)" rx="1"/><rect x="111" y="158" width="37" height="45" fill="hsl(189,85%,58%)" rx="1"/><rect x="148" y="158" width="53" height="45" fill="hsl(202,85%,58%)" rx="1"/><rect x="201" y="158" width="75" height="45" fill="hsl(216,85%,58%)" rx="1"/><rect x="276" y="158" width="106" height="45" fill="hsl(229,85%,58%)" rx="1"/><rect x="382" y="158" width="149" height="45" fill="hsl(243,85%,58%)" rx="1"/><rect x="531" y="158" width="211" height="45" fill="hsl(256,85%,58%)" rx="1"/><line x1="147" y1="154" x2="147" y2="207" stroke="#fff" stroke-width="1" stroke-dasharray="3,2" opacity="0.3"/><text x="24" y="219" font-size="9" fill="#666">ビン1-15（〜3.6kHz） ≈ 幅の18%</text><text x="151" y="219" font-size="9" fill="#666">ビン16-20（3.6kHz〜） ≈ 幅の82%</text></svg>