<?xml version="1.0" encoding="UTF-8" standalone="no"?>
<svg
   width="760"
   height="200"
   style="background:#0d0d1a;border-radius:8px"
   version="1.1"
   id="svg45"
   sodipodi:docname="normalization.svg"
   inkscape:version="1.4.2 (f4327f4, 2025-05-13)"
   xmlns:inkscape="http://www.inkscape.org/namespaces/inkscape"
   xmlns:sodipodi="http://sodipodi.sourceforge.net/DTD/sodipodi-0.dtd"
   xmlns="http://www.w3.org/2000/svg"
   xmlns:svg="http://www.w3.org/2000/svg">
  <defs
     id="defs45" />
  <sodipodi:namedview
     id="namedview45"
     pagecolor="#ffffff"
     bordercolor="#000000"
     borderopacity="0.25"
     inkscape:showpageshadow="2"
     inkscape:pageopacity="0.0"
     inkscape:pagecheckerboard="0"
     inkscape:deskcolor="#d1d1d1"
     inkscape:zoom="1.8338256"
     inkscape:cx="299.1015"
     inkscape:cy="83.704797"
     inkscape:current-layer="svg45" />
  <style
     id="style1">text{font-family:ui-monospace,monospace,sans-serif}</style>
  <text
     x="20"
     y="16"
     font-size="11"
     fill="#777"
     id="text1">生FFT振幅 — 低域に偏る</text>
  <text
     x="390"
     y="16"
     font-size="11"
     fill="#777"
     id="text2">移動平均正規化後 — 全帯域均等に寄与</text>
  <line
     x1="380"
     y1="22"
     x2="380"
     y2="160"
     stroke="#333"
     stroke-width="1"
     stroke-dasharray="4,3"
     id="line2" />
  <text
     x="380"
     y="174"
     text-anchor="middle"
     font-size="18"
     fill="#444"
     id="text3">→</text>
  <g
     id="g45"
     transform="matrix(0.5950216,0,0,1,8.0995679,0)">
    <rect
       x="20"
       y="56"
       width="28"
       height="94"
       fill="#ef3939"
       opacity="0.85"
       rx="2"
       id="rect3" />
    <rect
       x="49"
       y="59"
       width="28"
       height="91"
       fill="#ef6039"
       opacity="0.85"
       rx="2"
       id="rect5" />
    <rect
       x="78"
       y="61"
       width="28"
       height="89"
       fill="#ef8b39"
       opacity="0.85"
       rx="2"
       id="rect7" />
    <rect
       x="107"
       y="64"
       width="28"
       height="86"
       fill="#efb239"
       opacity="0.85"
       rx="2"
       id="rect9" />
    <rect
       x="136"
       y="67"
       width="28"
       height="83"
       fill="#efdd39"
       opacity="0.85"
       rx="2"
       id="rect11" />
    <rect
       x="165"
       y="70"
       width="28"
       height="80"
       fill="#daef39"
       opacity="0.85"
       rx="2"
       id="rect13" />
    <rect
       x="194"
       y="73"
       width="28"
       height="77"
       fill="#afef39"
       opacity="0.85"
       rx="2"
       id="rect15" />
    <rect
       x="223"
       y="76"
       width="28"
       height="74"
       fill="#88ef39"
       opacity="0.85"
       rx="2"
       id="rect17" />
    <rect
       x="252"
       y="80"
       width="28"
       height="70"
       fill="#5def39"
       opacity="0.85"
       rx="2"
       id="rect19" />
    <rect
       x="281"
       y="84"
       width="28"
       height="66"
       fill="#39ef3c"
       opacity="0.85"
       rx="2"
       id="rect21" />
    <rect
       x="310"
       y="89"
       width="28"
       height="61"
       fill="#39ef66"
       opacity="0.85"
       rx="2"
       id="rect23" />
    <rect
       x="339"
       y="93"
       width="28"
       height="57"
       fill="#39ef8e"
       opacity="0.85"
       rx="2"
       id="rect25" />
    <rect
       x="368"
       y="98"
       width="28"
       height="52"
       fill="#39efb9"
       opacity="0.85"
       rx="2"
       id="rect27" />
    <rect
       x="397"
       y="103"
       width="28"
       height="47"
       fill="#39efe0"
       opacity="0.85"
       rx="2"
       id="rect29" />
    <rect
       x="426"
       y="109"
       width="28"
       height="41"
       fill="#39d4ef"
       opacity="0.85"
       rx="2"
       id="rect31" />
    <rect
       x="455"
       y="114"
       width="28"
       height="36"
       fill="#39acef"
       opacity="0.85"
       rx="2"
       id="rect33" />
    <rect
       x="484"
       y="120"
       width="28"
       height="30"
       fill="#3982ef"
       opacity="0.85"
       rx="2"
       id="rect35" />
    <rect
       x="513"
       y="125"
       width="28"
       height="25"
       fill="#395aef"
       opacity="0.85"
       rx="2"
       id="rect37" />
    <rect
       x="542"
       y="131"
       width="28"
       height="19"
       fill="#4239ef"
       opacity="0.85"
       rx="2"
       id="rect39" />
    <rect
       x="571"
       y="137"
       width="28"
       height="13"
       fill="#6939ef"
       opacity="0.85"
       rx="2"
       id="rect41" />
  </g>
  <g
     id="g46"
     transform="matrix(0.57901083,0,0,1,168.39567,0)">
    <rect
       x="400"
       y="78"
       width="28"
       height="72"
       fill="#ef3939"
       opacity="0.85"
       rx="2"
       id="rect4" />
    <rect
       x="429"
       y="77"
       width="28"
       height="73"
       fill="#ef6039"
       opacity="0.85"
       rx="2"
       id="rect6" />
    <rect
       x="458"
       y="76"
       width="28"
       height="74"
       fill="#ef8b39"
       opacity="0.85"
       rx="2"
       id="rect8" />
    <rect
       x="487"
       y="76"
       width="28"
       height="74"
       fill="#efb239"
       opacity="0.85"
       rx="2"
       id="rect10" />
    <rect
       x="516"
       y="77"
       width="28"
       height="73"
       fill="#efdd39"
       opacity="0.85"
       rx="2"
       id="rect12" />
    <rect
       x="545"
       y="78"
       width="28"
       height="72"
       fill="#daef39"
       opacity="0.85"
       rx="2"
       id="rect14" />
    <rect
       x="574"
       y="80"
       width="28"
       height="70"
       fill="#afef39"
       opacity="0.85"
       rx="2"
       id="rect16" />
    <rect
       x="603"
       y="82"
       width="28"
       height="68"
       fill="#88ef39"
       opacity="0.85"
       rx="2"
       id="rect18" />
    <rect
       x="632"
       y="85"
       width="28"
       height="65"
       fill="#5def39"
       opacity="0.85"
       rx="2"
       id="rect20" />
    <rect
       x="661"
       y="87"
       width="28"
       height="63"
       fill="#39ef3c"
       opacity="0.85"
       rx="2"
       id="rect22" />
    <rect
       x="690"
       y="90"
       width="28"
       height="60"
       fill="#39ef66"
       opacity="0.85"
       rx="2"
       id="rect24" />
    <rect
       x="719"
       y="93"
       width="28"
       height="57"
       fill="#39ef8e"
       opacity="0.85"
       rx="2"
       id="rect26" />
    <rect
       x="748"
       y="96"
       width="28"
       height="54"
       fill="#39efb9"
       opacity="0.85"
       rx="2"
       id="rect28" />
    <rect
       x="777"
       y="98"
       width="28"
       height="52"
       fill="#39efe0"
       opacity="0.85"
       rx="2"
       id="rect30" />
    <rect
       x="806"
       y="100"
       width="28"
       height="50"
       fill="#39d4ef"
       opacity="0.85"
       rx="2"
       id="rect32" />
    <rect
       x="835"
       y="102"
       width="28"
       height="48"
       fill="#39acef"
       opacity="0.85"
       rx="2"
       id="rect34" />
    <rect
       x="864"
       y="102"
       width="28"
       height="48"
       fill="#3982ef"
       opacity="0.85"
       rx="2"
       id="rect36" />
    <rect
       x="893"
       y="103"
       width="28"
       height="47"
       fill="#395aef"
       opacity="0.85"
       rx="2"
       id="rect38" />
    <rect
       x="922"
       y="102"
       width="28"
       height="48"
       fill="#4239ef"
       opacity="0.85"
       rx="2"
       id="rect40" />
    <rect
       x="951"
       y="101"
       width="28"
       height="49"
       fill="#6939ef"
       opacity="0.85"
       rx="2"
       id="rect42" />
  </g>
  <text
     x="20"
     y="164"
     font-size="9"
     fill="#555"
     id="text42">20Hz</text>
  <text
     x="335"
     y="164"
     font-size="9"
     fill="#555"
     id="text43">20kHz</text>
  <text
     x="400"
     y="164"
     font-size="9"
     fill="#555"
     id="text44">20Hz</text>
  <text
     x="705"
     y="164"
     font-size="9"
     fill="#555"
     id="text45">20kHz</text>
</svg>
