<svg xmlns="http://www.w3.org/2000/svg" width="760" height="200" style="background:#0d0d1a;border-radius:8px">
<style>text{font-family:ui-monospace,monospace,sans-serif}</style><text x="20" y="16" font-size="11" fill="#777">生FFT振幅 — 低域に偏る</text><text x="390" y="16" font-size="11" fill="#777">移動平均正規化後 — 全帯域均等に寄与</text><line x1="380" y1="22" x2="380" y2="160" stroke="#333" stroke-width="1" stroke-dasharray="4,3"/><text x="380" y="174" text-anchor="middle" font-size="18" fill="#444">→</text><rect x="20" y="56" width="28" height="94" fill="hsl(0,85%,58%)" opacity="0.85" rx="2"/><rect x="400" y="78" width="28" height="72" fill="hsl(0,85%,58%)" opacity="0.85" rx="2"/><rect x="49" y="59" width="28" height="91" fill="hsl(13,85%,58%)" opacity="0.85" rx="2"/><rect x="429" y="77" width="28" height="73" fill="hsl(13,85%,58%)" opacity="0.85" rx="2"/><rect x="78" y="61" width="28" height="89" fill="hsl(27,85%,58%)" opacity="0.85" rx="2"/><rect x="458" y="76" width="28" height="74" fill="hsl(27,85%,58%)" opacity="0.85" rx="2"/><rect x="107" y="64" width="28" height="86" fill="hsl(40,85%,58%)" opacity="0.85" rx="2"/><rect x="487" y="76" width="28" height="74" fill="hsl(40,85%,58%)" opacity="0.85" rx="2"/><rect x="136" y="67" width="28" height="83" fill="hsl(54,85%,58%)" opacity="0.85" rx="2"/><rect x="516" y="77" width="28" height="73" fill="hsl(54,85%,58%)" opacity="0.85" rx="2"/><rect x="165" y="70" width="28" height="80" fill="hsl(67,85%,58%)" opacity="0.85" rx="2"/><rect x="545" y="78" width="28" height="72" fill="hsl(67,85%,58%)" opacity="0.85" rx="2"/><rect x="194" y="73" width="28" height="77" fill="hsl(81,85%,58%)" opacity="0.85" rx="2"/><rect x="574" y="80" width="28" height="70" fill="hsl(81,85%,58%)" opacity="0.85" rx="2"/><rect x="223" y="76" width="28" height="74" fill="hsl(94,85%,58%)" opacity="0.85" rx="2"/><rect x="603" y="82" width="28" height="68" fill="hsl(94,85%,58%)" opacity="0.85" rx="2"/><rect x="252" y="80" width="28" height="70" fill="hsl(108,85%,58%)" opacity="0.85" rx="2"/><rect x="632" y="85" width="28" height="65" fill="hsl(108,85%,58%)" opacity="0.85" rx="2"/><rect x="281" y="84" width="28" height="66" fill="hsl(121,85%,58%)" opacity="0.85" rx="2"/><rect x="661" y="87" width="28" height="63" fill="hsl(121,85%,58%)" opacity="0.85" rx="2"/><rect x="310" y="89" width="28" height="61" fill="hsl(135,85%,58%)" opacity="0.85" rx="2"/><rect x="690" y="90" width="28" height="60" fill="hsl(135,85%,58%)" opacity="0.85" rx="2"/><rect x="339" y="93" width="28" height="57" fill="hsl(148,85%,58%)" opacity="0.85" rx="2"/><rect x="719" y="93" width="28" height="57" fill="hsl(148,85%,58%)" opacity="0.85" rx="2"/><rect x="368" y="98" width="28" height="52" fill="hsl(162,85%,58%)" opacity="0.85" rx="2"/><rect x="748" y="96" width="28" height="54" fill="hsl(162,85%,58%)" opacity="0.85" rx="2"/><rect x="397" y="103" width="28" height="47" fill="hsl(175,85%,58%)" opacity="0.85" rx="2"/><rect x="777" y="98" width="28" height="52" fill="hsl(175,85%,58%)" opacity="0.85" rx="2"/><rect x="426" y="109" width="28" height="41" fill="hsl(189,85%,58%)" opacity="0.85" rx="2"/><rect x="806" y="100" width="28" height="50" fill="hsl(189,85%,58%)" opacity="0.85" rx="2"/><rect x="455" y="114" width="28" height="36" fill="hsl(202,85%,58%)" opacity="0.85" rx="2"/><rect x="835" y="102" width="28" height="48" fill="hsl(202,85%,58%)" opacity="0.85" rx="2"/><rect x="484" y="120" width="28" height="30" fill="hsl(216,85%,58%)" opacity="0.85" rx="2"/><rect x="864" y="102" width="28" height="48" fill="hsl(216,85%,58%)" opacity="0.85" rx="2"/><rect x="513" y="125" width="28" height="25" fill="hsl(229,85%,58%)" opacity="0.85" rx="2"/><rect x="893" y="103" width="28" height="47" fill="hsl(229,85%,58%)" opacity="0.85" rx="2"/><rect x="542" y="131" width="28" height="19" fill="hsl(243,85%,58%)" opacity="0.85" rx="2"/><rect x="922" y="102" width="28" height="48" fill="hsl(243,85%,58%)" opacity="0.85" rx="2"/><rect x="571" y="137" width="28" height="13" fill="hsl(256,85%,58%)" opacity="0.85" rx="2"/><rect x="951" y="101" width="28" height="49" fill="hsl(256,85%,58%)" opacity="0.85" rx="2"/><text x="20" y="164" font-size="9" fill="#555">20Hz</text><text x="335" y="164" font-size="9" fill="#555">20kHz</text><text x="400" y="164" font-size="9" fill="#555">20Hz</text><text x="705" y="164" font-size="9" fill="#555">20kHz</text></svg>